<svg width="330" height="120" viewBox="0 0 330 120" fill="none" xmlns="http://www.w3.org/2000/svg">
<path d="M2.64205 47V12.0909H17.0625C19.6761 12.0909 21.9318 12.5625 23.8295 13.5057C25.7386 14.4375 27.2102 15.7784 28.2443 17.5284C29.2784 19.267 29.7955 21.3295 29.7955 23.7159C29.7955 26.1364 29.267 28.1932 28.2102 29.8864C27.1534 31.5682 25.6534 32.8523 23.7102 33.7386C21.767 34.6136 19.4659 35.0511 16.8068 35.0511H7.6875V28.4034H15.2386C16.5114 28.4034 17.5739 28.2386 18.4261 27.9091C19.2898 27.5682 19.9432 27.0568 20.3864 26.375C20.8295 25.6818 21.0511 24.7955 21.0511 23.7159C21.0511 22.6364 20.8295 21.7443 20.3864 21.0398C19.9432 20.3239 19.2898 19.7898 18.4261 19.4375C17.5625 19.0739 16.5 18.892 15.2386 18.892H11.0795V47H2.64205ZM22.2955 31.0455L30.9886 47H21.7841L13.2614 31.0455H22.2955ZM46.1293 47.4943C43.3793 47.4943 41.0156 46.9318 39.0384 45.8068C37.0724 44.6705 35.5554 43.0909 34.4872 41.0682C33.4304 39.0341 32.902 36.6761 32.902 33.9943C32.902 31.3011 33.4304 28.9432 34.4872 26.9205C35.5554 24.8864 37.0724 23.3068 39.0384 22.1818C41.0156 21.0455 43.3793 20.4773 46.1293 20.4773C48.8793 20.4773 51.2372 21.0455 53.2031 22.1818C55.1804 23.3068 56.6974 24.8864 57.7543 26.9205C58.8224 28.9432 59.3565 31.3011 59.3565 33.9943C59.3565 36.6761 58.8224 39.0341 57.7543 41.0682C56.6974 43.0909 55.1804 44.6705 53.2031 45.8068C51.2372 46.9318 48.8793 47.4943 46.1293 47.4943ZM46.1804 41.2045C47.1804 41.2045 48.027 40.8977 48.7202 40.2841C49.4134 39.6705 49.9418 38.8182 50.3054 37.7273C50.6804 36.6364 50.8679 35.375 50.8679 33.9432C50.8679 32.4886 50.6804 31.2159 50.3054 30.125C49.9418 29.0341 49.4134 28.1818 48.7202 27.5682C48.027 26.9545 47.1804 26.6477 46.1804 26.6477C45.1463 26.6477 44.2713 26.9545 43.5554 27.5682C42.8509 28.1818 42.3111 29.0341 41.9361 30.125C41.5724 31.2159 41.3906 32.4886 41.3906 33.9432C41.3906 35.375 41.5724 36.6364 41.9361 37.7273C42.3111 38.8182 42.8509 39.6705 43.5554 40.2841C44.2713 40.8977 45.1463 41.2045 46.1804 41.2045ZM86.4844 28.8125L78.831 29.017C78.7514 28.4716 78.5355 27.9886 78.1832 27.5682C77.831 27.1364 77.3707 26.8011 76.8026 26.5625C76.2457 26.3125 75.598 26.1875 74.8594 26.1875C73.8935 26.1875 73.0696 26.3807 72.3878 26.767C71.7173 27.1534 71.3878 27.6761 71.3991 28.3352C71.3878 28.8466 71.5923 29.2898 72.0128 29.6648C72.4446 30.0398 73.2116 30.3409 74.3139 30.5682L79.3594 31.5227C81.973 32.0227 83.9162 32.8523 85.1889 34.0114C86.473 35.1705 87.1207 36.7045 87.1321 38.6136C87.1207 40.4091 86.5866 41.9716 85.5298 43.3011C84.4844 44.6307 83.0526 45.6648 81.2344 46.4034C79.4162 47.1307 77.3366 47.4943 74.9957 47.4943C71.2571 47.4943 68.3082 46.7273 66.1491 45.1932C64.0014 43.6477 62.7741 41.5795 62.4673 38.9886L70.7003 38.7841C70.8821 39.7386 71.3537 40.4659 72.1151 40.9659C72.8764 41.4659 73.848 41.7159 75.0298 41.7159C76.098 41.7159 76.9673 41.517 77.6378 41.1193C78.3082 40.7216 78.6491 40.1932 78.6605 39.5341C78.6491 38.9432 78.3878 38.4716 77.8764 38.1193C77.3651 37.7557 76.5639 37.4716 75.473 37.267L70.9048 36.3977C68.2798 35.9205 66.3253 35.0398 65.0412 33.7557C63.7571 32.4602 63.1207 30.8125 63.1321 28.8125C63.1207 27.0625 63.5866 25.5682 64.5298 24.3295C65.473 23.0795 66.8139 22.125 68.5526 21.4659C70.2912 20.8068 72.3423 20.4773 74.706 20.4773C78.2514 20.4773 81.0469 21.2216 83.0923 22.7102C85.1378 24.1875 86.2685 26.2216 86.4844 28.8125ZM114.094 28.8125L106.44 29.017C106.361 28.4716 106.145 27.9886 105.793 27.5682C105.44 27.1364 104.98 26.8011 104.412 26.5625C103.855 26.3125 103.207 26.1875 102.469 26.1875C101.503 26.1875 100.679 26.3807 99.9972 26.767C99.3267 27.1534 98.9972 27.6761 99.0085 28.3352C98.9972 28.8466 99.2017 29.2898 99.6222 29.6648C100.054 30.0398 100.821 30.3409 101.923 30.5682L106.969 31.5227C109.582 32.0227 111.526 32.8523 112.798 34.0114C114.082 35.1705 114.73 36.7045 114.741 38.6136C114.73 40.4091 114.196 41.9716 113.139 43.3011C112.094 44.6307 110.662 45.6648 108.844 46.4034C107.026 47.1307 104.946 47.4943 102.605 47.4943C98.8665 47.4943 95.9176 46.7273 93.7585 45.1932C91.6108 43.6477 90.3835 41.5795 90.0767 38.9886L98.3097 38.7841C98.4915 39.7386 98.9631 40.4659 99.7244 40.9659C100.486 41.4659 101.457 41.7159 102.639 41.7159C103.707 41.7159 104.577 41.517 105.247 41.1193C105.918 40.7216 106.259 40.1932 106.27 39.5341C106.259 38.9432 105.997 38.4716 105.486 38.1193C104.974 37.7557 104.173 37.4716 103.082 37.267L98.5142 36.3977C95.8892 35.9205 93.9347 35.0398 92.6506 33.7557C91.3665 32.4602 90.7301 30.8125 90.7415 28.8125C90.7301 27.0625 91.196 25.5682 92.1392 24.3295C93.0824 23.0795 94.4233 22.125 96.1619 21.4659C97.9006 20.8068 99.9517 20.4773 102.315 20.4773C105.861 20.4773 108.656 21.2216 110.702 22.7102C112.747 24.1875 113.878 26.2216 114.094 28.8125ZM2.64205 72.0909H13.0909L21.9545 93.7045H22.3636L31.2273 72.0909H41.6761V107H33.4602V85.5568H33.1705L24.7841 106.778H19.5341L11.1477 85.4375H10.858V107H2.64205V72.0909ZM59.1776 107.494C56.4389 107.494 54.0753 106.955 52.0866 105.875C50.1094 104.784 48.5866 103.233 47.5185 101.222C46.4616 99.1989 45.9332 96.7955 45.9332 94.0114C45.9332 91.3068 46.4673 88.9432 47.5355 86.9205C48.6037 84.8864 50.1094 83.3068 52.0526 82.1818C53.9957 81.0455 56.2855 80.4773 58.9219 80.4773C60.7855 80.4773 62.4901 80.767 64.0355 81.3466C65.581 81.9261 66.9162 82.7841 68.0412 83.9205C69.1662 85.0568 70.0412 86.4602 70.6662 88.1307C71.2912 89.7898 71.6037 91.6932 71.6037 93.8409V95.9205H48.848V91.0795H63.848C63.8366 90.1932 63.6264 89.4034 63.2173 88.7102C62.8082 88.017 62.2457 87.4773 61.5298 87.0909C60.8253 86.6932 60.0128 86.4943 59.0923 86.4943C58.1605 86.4943 57.3253 86.7045 56.5866 87.125C55.848 87.5341 55.2628 88.0966 54.831 88.8125C54.3991 89.517 54.1719 90.3182 54.1491 91.2159V96.142C54.1491 97.2102 54.3594 98.1477 54.7798 98.9545C55.2003 99.75 55.7969 100.369 56.5696 100.812C57.3423 101.256 58.2628 101.477 59.331 101.477C60.0696 101.477 60.7401 101.375 61.3423 101.17C61.9446 100.966 62.4616 100.665 62.8935 100.267C63.3253 99.8693 63.6491 99.3807 63.8651 98.8011L71.5185 99.0227C71.2003 100.739 70.5014 102.233 69.4219 103.506C68.3537 104.767 66.9503 105.75 65.2116 106.455C63.473 107.148 61.4616 107.494 59.1776 107.494ZM90.6392 80.8182V86.9545H74.1222V80.8182H90.6392ZM77.5824 74.5455H85.9176V98.767C85.9176 99.2784 85.9972 99.6932 86.1562 100.011C86.3267 100.318 86.571 100.54 86.8892 100.676C87.2074 100.801 87.5881 100.864 88.0312 100.864C88.3494 100.864 88.6847 100.835 89.0369 100.778C89.4006 100.71 89.6733 100.653 89.8551 100.608L91.1165 106.625C90.7188 106.739 90.1563 106.881 89.429 107.051C88.7131 107.222 87.8551 107.33 86.8551 107.375C84.9006 107.466 83.2244 107.239 81.8267 106.693C80.4403 106.136 79.3778 105.273 78.6392 104.102C77.9119 102.932 77.5597 101.46 77.5824 99.6875V74.5455ZM102.273 107.443C100.602 107.443 99.1193 107.165 97.8239 106.608C96.5398 106.04 95.5227 105.187 94.7727 104.051C94.0341 102.903 93.6648 101.466 93.6648 99.7386C93.6648 98.2841 93.9205 97.0568 94.4318 96.0568C94.9432 95.0568 95.6477 94.2443 96.5455 93.6193C97.4432 92.9943 98.4773 92.5227 99.6477 92.2045C100.818 91.875 102.068 91.6534 103.398 91.5398C104.886 91.4034 106.085 91.2614 106.994 91.1136C107.903 90.9545 108.563 90.733 108.972 90.4489C109.392 90.1534 109.602 89.7386 109.602 89.2045V89.1193C109.602 88.2443 109.301 87.5682 108.699 87.0909C108.097 86.6136 107.284 86.375 106.261 86.375C105.159 86.375 104.273 86.6136 103.602 87.0909C102.932 87.5682 102.506 88.2273 102.324 89.0682L94.6364 88.7955C94.8636 87.2045 95.4489 85.7841 96.392 84.5341C97.3466 83.2727 98.6534 82.2841 100.312 81.5682C101.983 80.8409 103.989 80.4773 106.33 80.4773C108 80.4773 109.54 80.6761 110.949 81.0739C112.358 81.4602 113.585 82.0284 114.631 82.7784C115.676 83.517 116.483 84.4261 117.051 85.5057C117.631 86.5852 117.92 87.8182 117.92 89.2045V107H110.08V103.352H109.875C109.409 104.239 108.813 104.989 108.085 105.602C107.369 106.216 106.523 106.676 105.545 106.983C104.58 107.29 103.489 107.443 102.273 107.443ZM104.847 101.989C105.744 101.989 106.551 101.807 107.267 101.443C107.994 101.08 108.574 100.58 109.006 99.9432C109.438 99.2955 109.653 98.5455 109.653 97.6932V95.2045C109.415 95.3295 109.125 95.4432 108.784 95.5455C108.455 95.6477 108.091 95.7443 107.693 95.8352C107.295 95.9261 106.886 96.0057 106.466 96.0739C106.045 96.142 105.642 96.2045 105.256 96.2614C104.472 96.3864 103.801 96.5795 103.244 96.8409C102.699 97.1023 102.278 97.4432 101.983 97.8636C101.699 98.2727 101.557 98.7614 101.557 99.3295C101.557 100.193 101.864 100.852 102.477 101.307C103.102 101.761 103.892 101.989 104.847 101.989ZM145.875 88.8125L138.222 89.017C138.142 88.4716 137.926 87.9886 137.574 87.5682C137.222 87.1364 136.761 86.8011 136.193 86.5625C135.636 86.3125 134.989 86.1875 134.25 86.1875C133.284 86.1875 132.46 86.3807 131.778 86.767C131.108 87.1534 130.778 87.6761 130.79 88.3352C130.778 88.8466 130.983 89.2898 131.403 89.6648C131.835 90.0398 132.602 90.3409 133.705 90.5682L138.75 91.5227C141.364 92.0227 143.307 92.8523 144.58 94.0114C145.864 95.1705 146.511 96.7045 146.523 98.6136C146.511 100.409 145.977 101.972 144.92 103.301C143.875 104.631 142.443 105.665 140.625 106.403C138.807 107.131 136.727 107.494 134.386 107.494C130.648 107.494 127.699 106.727 125.54 105.193C123.392 103.648 122.165 101.58 121.858 98.9886L130.091 98.7841C130.273 99.7386 130.744 100.466 131.506 100.966C132.267 101.466 133.239 101.716 134.42 101.716C135.489 101.716 136.358 101.517 137.028 101.119C137.699 100.722 138.04 100.193 138.051 99.5341C138.04 98.9432 137.778 98.4716 137.267 98.1193C136.756 97.7557 135.955 97.4716 134.864 97.267L130.295 96.3977C127.67 95.9205 125.716 95.0398 124.432 93.7557C123.148 92.4602 122.511 90.8125 122.523 88.8125C122.511 87.0625 122.977 85.5682 123.92 84.3295C124.864 83.0795 126.205 82.125 127.943 81.4659C129.682 80.8068 131.733 80.4773 134.097 80.4773C137.642 80.4773 140.438 81.2216 142.483 82.7102C144.528 84.1875 145.659 86.2216 145.875 88.8125ZM175.308 107.852C172.263 107.852 169.638 107.131 167.433 105.688C165.229 104.233 163.53 102.148 162.337 99.4318C161.143 96.7045 160.553 93.4261 160.564 89.5966C160.575 85.767 161.172 82.517 162.354 79.8466C163.547 77.1648 165.24 75.125 167.433 73.7273C169.638 72.3182 172.263 71.6136 175.308 71.6136C178.354 71.6136 180.979 72.3182 183.183 73.7273C185.399 75.125 187.104 77.1648 188.297 79.8466C189.49 82.5284 190.081 85.7784 190.07 89.5966C190.07 93.4375 189.473 96.7216 188.28 99.4489C187.087 102.176 185.388 104.261 183.183 105.705C180.99 107.136 178.365 107.852 175.308 107.852ZM175.308 100.949C177.126 100.949 178.598 100.023 179.723 98.1705C180.848 96.3068 181.405 93.4489 181.393 89.5966C181.393 87.0739 181.138 84.9943 180.626 83.358C180.115 81.7102 179.405 80.483 178.496 79.6761C177.587 78.8693 176.524 78.4659 175.308 78.4659C173.501 78.4659 172.041 79.3807 170.928 81.2102C169.814 83.0284 169.251 85.8239 169.24 89.5966C169.229 92.1534 169.473 94.2727 169.973 95.9545C170.484 97.6364 171.2 98.892 172.121 99.7216C173.041 100.54 174.104 100.949 175.308 100.949ZM198.158 107.494C196.93 107.494 195.879 107.062 195.004 106.199C194.141 105.335 193.714 104.29 193.726 103.062C193.714 101.858 194.141 100.83 195.004 99.9773C195.879 99.1136 196.93 98.6818 198.158 98.6818C199.317 98.6818 200.339 99.1136 201.226 99.9773C202.124 100.83 202.578 101.858 202.589 103.062C202.578 103.881 202.362 104.625 201.942 105.295C201.533 105.966 200.993 106.5 200.322 106.898C199.663 107.295 198.942 107.494 198.158 107.494ZM219.716 72.0909V107H211.295V79.9659H211.091L203.284 84.7386V77.4432L211.892 72.0909H219.716Z" fill="white"/>
<rect x="123.5" y="31.5" width="15" height="15" rx="3.5" fill="#18181B" stroke="#27272A"/>
<rect x="143.5" y="31.5" width="15" height="15" rx="3.5" fill="#4C1D95" stroke="#6D28D9"/>
<rect x="163.5" y="31.5" width="15" height="15" rx="3.5" fill="#5B21B6" stroke="#7C3AED"/>
<rect x="183.5" y="31.5" width="15" height="15" rx="3.5" fill="#6D28D9" stroke="#8B5CF6"/>
<rect x="203.5" y="31.5" width="15" height="15" rx="3.5" fill="#7C3AED" stroke="#A78BFA"/>
<rect x="223.5" y="31.5" width="15" height="15" rx="3.5" fill="#8B5CF6" stroke="#C4B5FD"/>
</svg>
